<?xml version="1.0" encoding="UTF-8" standalone="no"?>
<!-- Created with Inkscape (http://www.inkscape.org/) -->

<svg
   xmlns:dc="http://purl.org/dc/elements/1.1/"
   xmlns:cc="http://creativecommons.org/ns#"
   xmlns:rdf="http://www.w3.org/1999/02/22-rdf-syntax-ns#"
   xmlns:svg="http://www.w3.org/2000/svg"
   xmlns="http://www.w3.org/2000/svg"
   xmlns:xlink="http://www.w3.org/1999/xlink"
   xmlns:sodipodi="http://sodipodi.sourceforge.net/DTD/sodipodi-0.dtd"
   xmlns:inkscape="http://www.inkscape.org/namespaces/inkscape"
   width="64px"
   height="64px"
   id="svg2985"
   version="1.1"
   inkscape:version="0.91 r13725"
   sodipodi:docname="AircraftLogo.svg">
  <defs
     id="defs2987">
    <linearGradient
       id="linearGradient4722">
      <stop
         style="stop-color:#ffffff;stop-opacity:1;"
         offset="0"
         id="stop4724" />
      <stop
         style="stop-color:#bebebe;stop-opacity:1;"
         offset="1"
         id="stop4726" />
    </linearGradient>
    <marker
       inkscape:stockid="Arrow1Mend"
       orient="auto"
       refY="0.0"
       refX="0.0"
       id="Arrow1Mend"
       style="overflow:visible;">
      <path
         id="path3873"
         d="M 0.0,0.0 L 5.0,-5.0 L -12.5,0.0 L 5.0,5.0 L 0.0,0.0 z "
         style="fill-rule:evenodd;stroke:#000000;stroke-width:1.0pt;"
         transform="scale(0.4) rotate(180) translate(10,0)" />
    </marker>
    <marker
       inkscape:stockid="Arrow1Lend"
       orient="auto"
       refY="0.0"
       refX="0.0"
       id="Arrow1Lend"
       style="overflow:visible;">
      <path
         id="path3867"
         d="M 0.0,0.0 L 5.0,-5.0 L -12.5,0.0 L 5.0,5.0 L 0.0,0.0 z "
         style="fill-rule:evenodd;stroke:#000000;stroke-width:1.0pt;"
         transform="scale(0.8) rotate(180) translate(12.5,0)" />
    </marker>
    <linearGradient
       id="linearGradient3937">
      <stop
         style="stop-color:#be7328;stop-opacity:1;"
         offset="0"
         id="stop3939" />
      <stop
         style="stop-color:#dc962d;stop-opacity:1;"
         offset="1"
         id="stop3941" />
    </linearGradient>
    <linearGradient
       id="linearGradient3929">
      <stop
         id="stop3931"
         offset="0"
         style="stop-color:#c88c3c;stop-opacity:1;" />
      <stop
         id="stop3933"
         offset="1"
         style="stop-color:#ffff96;stop-opacity:1;" />
    </linearGradient>
    <linearGradient
       id="linearGradient3893">
      <stop
         style="stop-color:#505050;stop-opacity:1;"
         offset="0"
         id="stop3895" />
      <stop
         style="stop-color:#aaaaaa;stop-opacity:1;"
         offset="1"
         id="stop3897" />
    </linearGradient>
    <linearGradient
       id="linearGradient3873">
      <stop
         style="stop-color:#f0be6e;stop-opacity:1;"
         offset="0"
         id="stop3875" />
      <stop
         style="stop-color:#c88228;stop-opacity:1;"
         offset="1"
         id="stop3877" />
    </linearGradient>
    <linearGradient
       id="linearGradient3863">
      <stop
         id="stop3865"
         offset="0"
         style="stop-color:#6e4b18;stop-opacity:1;" />
      <stop
         id="stop3867"
         offset="1"
         style="stop-color:#c88228;stop-opacity:1;" />
    </linearGradient>
    <linearGradient
       id="linearGradient3979">
      <stop
         id="stop3981"
         offset="0"
         style="stop-color:#ffffff;stop-opacity:1;" />
      <stop
         id="stop3983"
         offset="1"
         style="stop-color:#ff9600;stop-opacity:1;" />
    </linearGradient>
    <linearGradient
       id="linearGradient3971">
      <stop
         id="stop3973"
         offset="0"
         style="stop-color:#ffffff;stop-opacity:1;" />
      <stop
         id="stop3975"
         offset="1"
         style="stop-color:#be7300;stop-opacity:1;" />
    </linearGradient>
    <marker
       inkscape:stockid="Arrow1Send"
       orient="auto"
       refY="0.0"
       refX="0.0"
       id="Arrow1Send"
       style="overflow:visible;">
      <path
         id="path4031"
         d="M 0.0,0.0 L 5.0,-5.0 L -12.5,0.0 L 5.0,5.0 L 0.0,0.0 z "
         style="fill-rule:evenodd;stroke:#000000;stroke-width:1.0pt;"
         transform="scale(0.2) rotate(180) translate(6,0)" />
    </marker>
    <marker
       inkscape:stockid="Arrow2Send"
       orient="auto"
       refY="0.0"
       refX="0.0"
       id="Arrow2Send"
       style="overflow:visible;">
      <path
         id="path4049"
         style="fill-rule:evenodd;stroke-width:0.62500000;stroke-linejoin:round;"
         d="M 8.7185878,4.0337352 L -2.2072895,0.016013256 L 8.7185884,-4.0017078 C 6.9730900,-1.6296469 6.9831476,1.6157441 8.7185878,4.0337352 z "
         transform="scale(0.3) rotate(180) translate(-2.3,0)" />
    </marker>
    <marker
       inkscape:stockid="Arrow2Sstart"
       orient="auto"
       refY="0.0"
       refX="0.0"
       id="Arrow2Sstart"
       style="overflow:visible">
      <path
         id="path4046"
         style="fill-rule:evenodd;stroke-width:0.62500000;stroke-linejoin:round"
         d="M 8.7185878,4.0337352 L -2.2072895,0.016013256 L 8.7185884,-4.0017078 C 6.9730900,-1.6296469 6.9831476,1.6157441 8.7185878,4.0337352 z "
         transform="scale(0.3) translate(-2.3,0)" />
    </marker>
    <marker
       inkscape:stockid="Arrow2Mstart"
       orient="auto"
       refY="0.0"
       refX="0.0"
       id="Arrow2Mstart"
       style="overflow:visible">
      <path
         id="path4040"
         style="fill-rule:evenodd;stroke-width:0.62500000;stroke-linejoin:round"
         d="M 8.7185878,4.0337352 L -2.2072895,0.016013256 L 8.7185884,-4.0017078 C 6.9730900,-1.6296469 6.9831476,1.6157441 8.7185878,4.0337352 z "
         transform="scale(0.6) translate(0,0)" />
    </marker>
    <linearGradient
       id="linearGradient3900">
      <stop
         style="stop-color:#ffffff;stop-opacity:1;"
         offset="0"
         id="stop3902" />
      <stop
         style="stop-color:#a0a0a0;stop-opacity:1;"
         offset="1"
         id="stop3904" />
    </linearGradient>
    <linearGradient
       id="linearGradient3882">
      <stop
         style="stop-color:#ffffff;stop-opacity:1;"
         offset="0"
         id="stop3884" />
      <stop
         style="stop-color:#960000;stop-opacity:1;"
         offset="1"
         id="stop3886" />
    </linearGradient>
    <linearGradient
       id="linearGradient3860">
      <stop
         style="stop-color:#1e76e3;stop-opacity:1;"
         offset="0"
         id="stop3862" />
      <stop
         style="stop-color:#ffffff;stop-opacity:1;"
         offset="1"
         id="stop3864" />
    </linearGradient>
    <linearGradient
       inkscape:collect="always"
       xlink:href="#linearGradient3860-6"
       id="linearGradient3866-5"
       x1="31.125395"
       y1="61.410763"
       x2="30.113636"
       y2="12.160761"
       gradientUnits="userSpaceOnUse" />
    <linearGradient
       id="linearGradient3860-6">
      <stop
         style="stop-color:#5a9ff5;stop-opacity:1;"
         offset="0"
         id="stop3862-4" />
      <stop
         style="stop-color:#ffffff;stop-opacity:1;"
         offset="1"
         id="stop3864-4" />
    </linearGradient>
    <linearGradient
       inkscape:collect="always"
       xlink:href="#linearGradient3873"
       id="linearGradient3871"
       gradientUnits="userSpaceOnUse"
       x1="38.907837"
       y1="51.470051"
       x2="45.302406"
       y2="54.091148" />
    <linearGradient
       inkscape:collect="always"
       xlink:href="#linearGradient3863"
       id="linearGradient3891"
       gradientUnits="userSpaceOnUse"
       x1="51.657837"
       y1="34.470051"
       x2="45.427406"
       y2="32.216148" />
    <linearGradient
       inkscape:collect="always"
       xlink:href="#linearGradient3893"
       id="linearGradient3899"
       gradientUnits="userSpaceOnUse"
       x1="51.657837"
       y1="34.470051"
       x2="45.427406"
       y2="32.216148" />
    <radialGradient
       inkscape:collect="always"
       xlink:href="#linearGradient3882"
       id="radialGradient3903"
       cx="53.748837"
       cy="4.9173141"
       fx="53.748837"
       fy="4.9173141"
       r="3.2874005"
       gradientTransform="matrix(2.3303929,-1.4921636,1.0936999,1.7080907,-77.643882,78.644487)"
       gradientUnits="userSpaceOnUse" />
    <radialGradient
       inkscape:collect="always"
       xlink:href="#linearGradient3929"
       id="radialGradient3927"
       cx="15.125"
       cy="48.035076"
       fx="15.125"
       fy="48.035076"
       r="18.875"
       gradientTransform="matrix(2.7636523,-0.71644256,0.733044,2.8276918,-61.887066,-71.992203)"
       gradientUnits="userSpaceOnUse" />
    <radialGradient
       inkscape:collect="always"
       xlink:href="#linearGradient3937"
       id="radialGradient3943"
       gradientUnits="userSpaceOnUse"
       gradientTransform="matrix(0.40097726,-0.37931652,0.11734116,0.12404187,14.422507,4.6205505)"
       cx="-14.308363"
       cy="14.910047"
       fx="-14.308363"
       fy="14.910047"
       r="18.875" />
    <radialGradient
       inkscape:collect="always"
       xlink:href="#linearGradient3929"
       id="radialGradient3949"
       gradientUnits="userSpaceOnUse"
       gradientTransform="matrix(2.7636523,-0.71644256,0.733044,2.8276918,-61.887066,-71.992203)"
       cx="15.125"
       cy="48.035076"
       fx="15.125"
       fy="48.035076"
       r="18.875" />
    <radialGradient
       inkscape:collect="always"
       xlink:href="#linearGradient3937"
       id="radialGradient3951"
       gradientUnits="userSpaceOnUse"
       gradientTransform="matrix(0.40097726,-0.37931652,0.11734116,0.12404187,14.422507,4.6205505)"
       cx="-14.308363"
       cy="14.910047"
       fx="-14.308363"
       fy="14.910047"
       r="18.875" />
    <marker
       inkscape:stockid="Arrow1Mend"
       orient="auto"
       refY="0"
       refX="0"
       id="Arrow1Mend-3"
       style="overflow:visible">
      <path
         inkscape:connector-curvature="0"
         id="path3873-0"
         d="M 0,0 5,-5 -12.5,0 5,5 0,0 z"
         style="fill-rule:evenodd;stroke:#000000;stroke-width:1pt"
         transform="matrix(-0.4,0,0,-0.4,-4,0)" />
    </marker>
  </defs>
  <sodipodi:namedview
     id="base"
     pagecolor="#ffffff"
     bordercolor="#666666"
     borderopacity="1.0"
     inkscape:pageopacity="0.0"
     inkscape:pageshadow="2"
     inkscape:zoom="8.0000001"
     inkscape:cx="38.624498"
     inkscape:cy="17.006521"
     inkscape:current-layer="layer1"
     showgrid="true"
     inkscape:document-units="px"
     inkscape:grid-bbox="true"
     inkscape:window-width="1920"
     inkscape:window-height="1072"
     inkscape:window-x="0"
     inkscape:window-y="0"
     inkscape:window-maximized="1" />
  <metadata
     id="metadata2990">
    <rdf:RDF>
      <cc:Work
         rdf:about="">
        <dc:format>image/svg+xml</dc:format>
        <dc:type
           rdf:resource="http://purl.org/dc/dcmitype/StillImage" />
        <dc:title />
      </cc:Work>
    </rdf:RDF>
  </metadata>
  <g
     id="layer1"
     inkscape:label="Layer 1"
     inkscape:groupmode="layer">
    <path
       style="fill:none;fill-rule:evenodd;stroke:#000000;stroke-width:1px;stroke-linecap:butt;stroke-linejoin:miter;stroke-opacity:1"
       d="M 59.844793,31.110431 52.863283,26.284482 36.955914,26.568356 27.007763,4.1148642 17.457032,3.9316902 28.471983,26.719755 14.685596,26.965778 9.9576612,19.624345 3.0676219,19.924106 9.6450512,31.829458 Z"
       id="path3400"
       inkscape:connector-curvature="0"
       sodipodi:nodetypes="cccccccccc" />
    <path
       style="fill:#000000;fill-opacity:1;fill-rule:nonzero;stroke:none;stroke-width:1px;stroke-linecap:butt;stroke-linejoin:miter;stroke-opacity:1"
       id="path3408"
       d="m 10.969619,38.860259 c 0.451882,-0.190496 0.891216,-0.414675 1.355157,-0.575869 0.429589,-0.149257 0.74757,-0.221469 1.195881,-0.338495 1.522495,-0.368318 3.086208,-0.48449 4.645936,-0.555027 1.28052,-0.06609 2.574872,-0.009 3.821617,0.312698 0.293323,0.07568 0.580585,0.173166 0.870877,0.259749 2.032128,0.671974 3.978249,1.571953 5.933681,2.435277 1.922643,0.886744 3.896118,1.669203 5.945922,2.209678 0.351119,0.09258 0.70641,0.168543 1.059615,0.252814 1.754153,0.441971 3.550177,0.624218 5.351922,0.710909 1.632946,0.09474 3.261028,-0.05434 4.877528,-0.271866 1.844756,-0.277353 3.683745,-0.595139 5.507631,-0.987325 1.795728,-0.409833 3.583758,-0.861079 5.326077,-1.461088 0.906802,-0.354006 1.809544,-0.721721 2.692331,-1.132438 0,0 -1.426074,1.132069 -1.426074,1.132069 l 0,0 c -0.875141,0.38802 -1.761856,0.751385 -2.659581,1.083881 -1.743716,0.580115 -3.528624,1.024936 -5.320225,1.430656 -1.832424,0.383758 -3.675818,0.716938 -5.528696,0.986097 -1.62542,0.209988 -3.2616,0.358846 -4.902076,0.249875 -1.799996,-0.10067 -3.591228,-0.300935 -5.340174,-0.759523 -0.351147,-0.08874 -0.704334,-0.169757 -1.053441,-0.266209 -2.046355,-0.56537 -4.018935,-1.357651 -5.950583,-2.232583 -1.965483,-0.845432 -3.918817,-1.737153 -5.959161,-2.390612 -0.291418,-0.08025 -0.580124,-0.171084 -0.874253,-0.240738 -1.244468,-0.29471 -2.527801,-0.343758 -3.800259,-0.274015 -1.556225,0.07617 -3.117589,0.19802 -4.631037,0.5925 -0.892595,0.253639 -1.7648,0.556439 -2.5886187,0.989451 0,0 1.4500037,-1.159866 1.4500037,-1.159866 z"
       inkscape:connector-curvature="0" />
    <path
       style="fill:#aca793;fill-opacity:1;fill-rule:nonzero;stroke:none;stroke-width:1px;stroke-linecap:butt;stroke-linejoin:miter;stroke-opacity:1"
       id="path3410"
       d="m 10.555673,51.470454 c 1.290835,-0.840955 2.593834,-1.71845 4.030627,-2.289904 0.201392,-0.0801 0.408668,-0.144529 0.613001,-0.216794 0.598373,-0.188708 1.215765,-0.318186 1.846623,-0.303745 0.761827,0.01744 1.50666,0.213794 2.2463,0.375353 1.658973,0.39011 3.319077,0.772024 4.973138,1.182835 0.267321,0.0696 0.534447,0.139958 0.801964,0.208804 0.851894,0.219234 0.728698,0.1741 1.565563,0.423609 0.787837,0.234891 1.566798,0.49884 2.351347,0.744394 1.159033,0.355853 2.342739,0.633824 3.545376,0.793534 0.942518,0.125167 1.400904,0.144233 2.36377,0.215456 2.137888,0.119367 4.280247,0.172693 6.420384,0.08215 1.606878,-0.06798 1.995326,-0.12052 3.577799,-0.261086 0.532431,-0.05873 1.065625,-0.110895 1.597291,-0.176177 1.021443,-0.12542 1.725129,-0.229141 2.724695,-0.425021 1.182129,-0.231657 2.34359,-0.545306 3.508253,-0.849893 1.712326,-0.435063 3.424881,-0.881157 5.099498,-1.446932 0.677606,-0.232513 2.453683,-1.303544 -0.383329,0.303293 0,0 1.71613,-0.674117 1.71613,-0.674117 l 0,0 c -0.904546,0.53561 -1.754786,1.142549 -2.75412,1.473856 -1.661048,0.526636 -3.350407,0.95859 -5.038994,1.386571 -0.679234,0.176153 -1.616597,0.425025 -2.300689,0.579204 -1.805735,0.406972 -3.642384,0.643013 -5.485236,0.803039 -1.561069,0.129267 -1.98877,0.180105 -3.57492,0.247185 -2.163871,0.09151 -4.330986,0.06152 -6.493508,-0.04971 -0.942172,-0.06617 -1.472869,-0.08876 -2.39834,-0.208796 -1.214568,-0.157528 -2.410197,-0.43801 -3.578878,-0.801532 -1.562107,-0.488511 -3.117955,-0.998678 -4.714519,-1.366865 -1.653201,-0.407896 -3.308981,-0.803954 -4.970334,-1.177441 -0.450629,-0.09222 -1.088998,-0.234804 -1.552959,-0.285033 -0.853082,-0.09236 -1.692084,0.02545 -2.500369,0.307303 -0.20149,0.07572 -0.405889,0.144118 -0.60447,0.227172 -0.199736,0.08354 -0.756132,0.410714 -0.589684,0.272265 0.289506,-0.240805 0.649132,-0.382233 0.966173,-0.585422 0.170896,-0.109527 -0.354482,0.198093 -0.52748,0.304267 -0.150357,0.09228 -0.29536,0.193019 -0.442173,0.290837 -0.10736,0.07153 -0.213552,0.144799 -0.320329,0.217199 0,0 -1.717601,0.680142 -1.717601,0.680142 z"
       inkscape:connector-curvature="0" />
    <path
       style="fill:#b7c4c8"
       d="M 6.9910141,25.883119 C 5.3569729,22.912108 4.0350979,20.467544 4.0535142,20.450754 c 0.018416,-0.01679 1.2874257,-0.07873 2.8200209,-0.137651 l 2.7865366,-0.107124 2.3296723,3.625 c 1.28132,1.99375 2.343583,3.644328 2.360584,3.667953 0.04375,0.06079 14.843304,-0.23292 14.906215,-0.295831 0.02848,-0.02848 -2.402129,-5.125997 -5.401355,-11.327812 -2.999226,-6.2018159 -5.42989,-11.2992771 -5.401475,-11.3276922 0.02841,-0.028415 1.881956,-0.010533 4.118979,0.039737 l 4.067315,0.091401 4.24525,9.576122 c 2.334886,5.266867 4.572959,10.328214 4.973495,11.247438 l 0.728246,1.671317 2.5625,-0.07638 c 1.409375,-0.04201 5.0375,-0.112664 8.0625,-0.157011 l 5.5,-0.08063 2.594312,1.791382 c 1.426872,0.98526 2.551872,1.828576 2.5,1.874035 -0.05187,0.04546 -5.156812,0.149176 -11.344312,0.230486 -14.126605,0.185637 -26.039005,0.35469 -31.9375,0.453238 l -4.5624997,0.07623 -2.9709842,-5.401837 z"
       id="path3412"
       inkscape:connector-curvature="0" />
  </g>
</svg>
