<?xml version="1.0" encoding="UTF-8" standalone="no"?>
<!-- Created with Inkscape (http://www.inkscape.org/) -->

<svg
   xmlns:dc="http://purl.org/dc/elements/1.1/"
   xmlns:cc="http://creativecommons.org/ns#"
   xmlns:rdf="http://www.w3.org/1999/02/22-rdf-syntax-ns#"
   xmlns:svg="http://www.w3.org/2000/svg"
   xmlns="http://www.w3.org/2000/svg"
   xmlns:xlink="http://www.w3.org/1999/xlink"
   xmlns:sodipodi="http://sodipodi.sourceforge.net/DTD/sodipodi-0.dtd"
   xmlns:inkscape="http://www.inkscape.org/namespaces/inkscape"
   width="64px"
   height="64px"
   id="svg2985"
   version="1.1"
   inkscape:version="0.91 r13725"
   sodipodi:docname="NACAairfoil.svg">
  <defs
     id="defs2987">
    <linearGradient
       id="linearGradient4722">
      <stop
         style="stop-color:#ffffff;stop-opacity:1;"
         offset="0"
         id="stop4724" />
      <stop
         style="stop-color:#bebebe;stop-opacity:1;"
         offset="1"
         id="stop4726" />
    </linearGradient>
    <marker
       inkscape:stockid="Arrow1Mend"
       orient="auto"
       refY="0.0"
       refX="0.0"
       id="Arrow1Mend"
       style="overflow:visible;">
      <path
         id="path3873"
         d="M 0.0,0.0 L 5.0,-5.0 L -12.5,0.0 L 5.0,5.0 L 0.0,0.0 z "
         style="fill-rule:evenodd;stroke:#000000;stroke-width:1.0pt;"
         transform="scale(0.4) rotate(180) translate(10,0)" />
    </marker>
    <marker
       inkscape:stockid="Arrow1Lend"
       orient="auto"
       refY="0.0"
       refX="0.0"
       id="Arrow1Lend"
       style="overflow:visible;">
      <path
         id="path3867"
         d="M 0.0,0.0 L 5.0,-5.0 L -12.5,0.0 L 5.0,5.0 L 0.0,0.0 z "
         style="fill-rule:evenodd;stroke:#000000;stroke-width:1.0pt;"
         transform="scale(0.8) rotate(180) translate(12.5,0)" />
    </marker>
    <linearGradient
       id="linearGradient3937">
      <stop
         style="stop-color:#be7328;stop-opacity:1;"
         offset="0"
         id="stop3939" />
      <stop
         style="stop-color:#dc962d;stop-opacity:1;"
         offset="1"
         id="stop3941" />
    </linearGradient>
    <linearGradient
       id="linearGradient3929">
      <stop
         id="stop3931"
         offset="0"
         style="stop-color:#c88c3c;stop-opacity:1;" />
      <stop
         id="stop3933"
         offset="1"
         style="stop-color:#ffff96;stop-opacity:1;" />
    </linearGradient>
    <linearGradient
       id="linearGradient3893">
      <stop
         style="stop-color:#505050;stop-opacity:1;"
         offset="0"
         id="stop3895" />
      <stop
         style="stop-color:#aaaaaa;stop-opacity:1;"
         offset="1"
         id="stop3897" />
    </linearGradient>
    <linearGradient
       id="linearGradient3873">
      <stop
         style="stop-color:#f0be6e;stop-opacity:1;"
         offset="0"
         id="stop3875" />
      <stop
         style="stop-color:#c88228;stop-opacity:1;"
         offset="1"
         id="stop3877" />
    </linearGradient>
    <linearGradient
       id="linearGradient3863">
      <stop
         id="stop3865"
         offset="0"
         style="stop-color:#6e4b18;stop-opacity:1;" />
      <stop
         id="stop3867"
         offset="1"
         style="stop-color:#c88228;stop-opacity:1;" />
    </linearGradient>
    <linearGradient
       id="linearGradient3979">
      <stop
         id="stop3981"
         offset="0"
         style="stop-color:#ffffff;stop-opacity:1;" />
      <stop
         id="stop3983"
         offset="1"
         style="stop-color:#ff9600;stop-opacity:1;" />
    </linearGradient>
    <linearGradient
       id="linearGradient3971">
      <stop
         id="stop3973"
         offset="0"
         style="stop-color:#ffffff;stop-opacity:1;" />
      <stop
         id="stop3975"
         offset="1"
         style="stop-color:#be7300;stop-opacity:1;" />
    </linearGradient>
    <marker
       inkscape:stockid="Arrow1Send"
       orient="auto"
       refY="0.0"
       refX="0.0"
       id="Arrow1Send"
       style="overflow:visible;">
      <path
         id="path4031"
         d="M 0.0,0.0 L 5.0,-5.0 L -12.5,0.0 L 5.0,5.0 L 0.0,0.0 z "
         style="fill-rule:evenodd;stroke:#000000;stroke-width:1.0pt;"
         transform="scale(0.2) rotate(180) translate(6,0)" />
    </marker>
    <marker
       inkscape:stockid="Arrow2Send"
       orient="auto"
       refY="0.0"
       refX="0.0"
       id="Arrow2Send"
       style="overflow:visible;">
      <path
         id="path4049"
         style="fill-rule:evenodd;stroke-width:0.62500000;stroke-linejoin:round;"
         d="M 8.7185878,4.0337352 L -2.2072895,0.016013256 L 8.7185884,-4.0017078 C 6.9730900,-1.6296469 6.9831476,1.6157441 8.7185878,4.0337352 z "
         transform="scale(0.3) rotate(180) translate(-2.3,0)" />
    </marker>
    <marker
       inkscape:stockid="Arrow2Sstart"
       orient="auto"
       refY="0.0"
       refX="0.0"
       id="Arrow2Sstart"
       style="overflow:visible">
      <path
         id="path4046"
         style="fill-rule:evenodd;stroke-width:0.62500000;stroke-linejoin:round"
         d="M 8.7185878,4.0337352 L -2.2072895,0.016013256 L 8.7185884,-4.0017078 C 6.9730900,-1.6296469 6.9831476,1.6157441 8.7185878,4.0337352 z "
         transform="scale(0.3) translate(-2.3,0)" />
    </marker>
    <marker
       inkscape:stockid="Arrow2Mstart"
       orient="auto"
       refY="0.0"
       refX="0.0"
       id="Arrow2Mstart"
       style="overflow:visible">
      <path
         id="path4040"
         style="fill-rule:evenodd;stroke-width:0.62500000;stroke-linejoin:round"
         d="M 8.7185878,4.0337352 L -2.2072895,0.016013256 L 8.7185884,-4.0017078 C 6.9730900,-1.6296469 6.9831476,1.6157441 8.7185878,4.0337352 z "
         transform="scale(0.6) translate(0,0)" />
    </marker>
    <linearGradient
       id="linearGradient3900">
      <stop
         style="stop-color:#ffffff;stop-opacity:1;"
         offset="0"
         id="stop3902" />
      <stop
         style="stop-color:#a0a0a0;stop-opacity:1;"
         offset="1"
         id="stop3904" />
    </linearGradient>
    <linearGradient
       id="linearGradient3882">
      <stop
         style="stop-color:#ffffff;stop-opacity:1;"
         offset="0"
         id="stop3884" />
      <stop
         style="stop-color:#960000;stop-opacity:1;"
         offset="1"
         id="stop3886" />
    </linearGradient>
    <linearGradient
       id="linearGradient3860">
      <stop
         style="stop-color:#1e76e3;stop-opacity:1;"
         offset="0"
         id="stop3862" />
      <stop
         style="stop-color:#ffffff;stop-opacity:1;"
         offset="1"
         id="stop3864" />
    </linearGradient>
    <linearGradient
       inkscape:collect="always"
       xlink:href="#linearGradient3860-6"
       id="linearGradient3866-5"
       x1="31.125395"
       y1="61.410763"
       x2="30.113636"
       y2="12.160761"
       gradientUnits="userSpaceOnUse" />
    <linearGradient
       id="linearGradient3860-6">
      <stop
         style="stop-color:#5a9ff5;stop-opacity:1;"
         offset="0"
         id="stop3862-4" />
      <stop
         style="stop-color:#ffffff;stop-opacity:1;"
         offset="1"
         id="stop3864-4" />
    </linearGradient>
    <linearGradient
       inkscape:collect="always"
       xlink:href="#linearGradient3873"
       id="linearGradient3871"
       gradientUnits="userSpaceOnUse"
       x1="38.907837"
       y1="51.470051"
       x2="45.302406"
       y2="54.091148" />
    <linearGradient
       inkscape:collect="always"
       xlink:href="#linearGradient3863"
       id="linearGradient3891"
       gradientUnits="userSpaceOnUse"
       x1="51.657837"
       y1="34.470051"
       x2="45.427406"
       y2="32.216148" />
    <linearGradient
       inkscape:collect="always"
       xlink:href="#linearGradient3893"
       id="linearGradient3899"
       gradientUnits="userSpaceOnUse"
       x1="51.657837"
       y1="34.470051"
       x2="45.427406"
       y2="32.216148" />
    <radialGradient
       inkscape:collect="always"
       xlink:href="#linearGradient3882"
       id="radialGradient3903"
       cx="53.748837"
       cy="4.9173141"
       fx="53.748837"
       fy="4.9173141"
       r="3.2874005"
       gradientTransform="matrix(2.3303929,-1.4921636,1.0936999,1.7080907,-77.643882,78.644487)"
       gradientUnits="userSpaceOnUse" />
    <radialGradient
       inkscape:collect="always"
       xlink:href="#linearGradient3929"
       id="radialGradient3927"
       cx="15.125"
       cy="48.035076"
       fx="15.125"
       fy="48.035076"
       r="18.875"
       gradientTransform="matrix(2.7636523,-0.71644256,0.733044,2.8276918,-61.887066,-71.992203)"
       gradientUnits="userSpaceOnUse" />
    <radialGradient
       inkscape:collect="always"
       xlink:href="#linearGradient3937"
       id="radialGradient3943"
       gradientUnits="userSpaceOnUse"
       gradientTransform="matrix(0.40097726,-0.37931652,0.11734116,0.12404187,14.422507,4.6205505)"
       cx="-14.308363"
       cy="14.910047"
       fx="-14.308363"
       fy="14.910047"
       r="18.875" />
    <radialGradient
       inkscape:collect="always"
       xlink:href="#linearGradient3929"
       id="radialGradient3949"
       gradientUnits="userSpaceOnUse"
       gradientTransform="matrix(2.7636523,-0.71644256,0.733044,2.8276918,-61.887066,-71.992203)"
       cx="15.125"
       cy="48.035076"
       fx="15.125"
       fy="48.035076"
       r="18.875" />
    <radialGradient
       inkscape:collect="always"
       xlink:href="#linearGradient3937"
       id="radialGradient3951"
       gradientUnits="userSpaceOnUse"
       gradientTransform="matrix(0.40097726,-0.37931652,0.11734116,0.12404187,14.422507,4.6205505)"
       cx="-14.308363"
       cy="14.910047"
       fx="-14.308363"
       fy="14.910047"
       r="18.875" />
    <marker
       inkscape:stockid="Arrow1Mend"
       orient="auto"
       refY="0"
       refX="0"
       id="Arrow1Mend-3"
       style="overflow:visible">
      <path
         inkscape:connector-curvature="0"
         id="path3873-0"
         d="M 0,0 5,-5 -12.5,0 5,5 0,0 z"
         style="fill-rule:evenodd;stroke:#000000;stroke-width:1pt"
         transform="matrix(-0.4,0,0,-0.4,-4,0)" />
    </marker>
  </defs>
  <sodipodi:namedview
     id="base"
     pagecolor="#ffffff"
     bordercolor="#666666"
     borderopacity="1.0"
     inkscape:pageopacity="0.0"
     inkscape:pageshadow="2"
     inkscape:zoom="8.0000001"
     inkscape:cx="33.093751"
     inkscape:cy="29.437501"
     inkscape:current-layer="layer1"
     showgrid="true"
     inkscape:document-units="px"
     inkscape:grid-bbox="true"
     inkscape:window-width="1920"
     inkscape:window-height="1077"
     inkscape:window-x="0"
     inkscape:window-y="0"
     inkscape:window-maximized="1" />
  <metadata
     id="metadata2990">
    <rdf:RDF>
      <cc:Work
         rdf:about="">
        <dc:format>image/svg+xml</dc:format>
        <dc:type
           rdf:resource="http://purl.org/dc/dcmitype/StillImage" />
        <dc:title />
      </cc:Work>
    </rdf:RDF>
  </metadata>
  <g
     id="layer1"
     inkscape:label="Layer 1"
     inkscape:groupmode="layer">
    <text
       xml:space="preserve"
       style="font-style:normal;font-weight:normal;font-size:17.5px;line-height:125%;font-family:sans-serif;letter-spacing:0px;word-spacing:0px;fill:#000000;fill-opacity:1;stroke:none;stroke-width:1px;stroke-linecap:butt;stroke-linejoin:miter;stroke-opacity:1"
       x="13.625"
       y="32.875"
       id="text3396"
       sodipodi:linespacing="125%"><tspan
         sodipodi:role="line"
         id="tspan3398"
         x="13.625"
         y="32.875" /></text>
    <path
       style="fill:none;fill-rule:evenodd;stroke:#000000;stroke-width:1px;stroke-linecap:butt;stroke-linejoin:miter;stroke-opacity:1"
       d="m 60.487893,49.009695 c 0,0 -52.5276269,-46.5777724 -55.6514008,-33.353452 C 1.7127186,28.880565 57.031825,43.712941 60.487893,49.009695 Z"
       id="path3402"
       inkscape:connector-curvature="0" />
    <path
       style="fill:#d7e3f4"
       d="m 52.556251,43.959219 c -1.1,-0.482632 -5.490976,-2.29977 -9.757724,-4.038082 C 31.092021,35.151797 27.094501,33.413913 21.806251,30.794947 12.376389,26.124878 7.0305458,22.069251 5.6338158,18.525718 4.919304,16.712988 5.3406408,14.765954 6.5763466,14.170203 c 4.0773864,-1.965768 17.5129644,5.833849 37.2299044,21.61269 3.817369,3.054919 9.774649,7.96725 10.808036,8.91223 0.304036,0.278025 0.02754,0.179155 -2.058036,-0.735904 z"
       id="path3404"
       inkscape:connector-curvature="0" />
    <path
       style="fill:#ffcc00"
       d="m 52.368751,43.907721 c -1.134375,-0.497487 -3.4125,-1.454372 -5.0625,-2.126411 -1.65,-0.672039 -3.225,-1.321752 -3.5,-1.443807 -0.275,-0.122057 -0.809375,-0.346544 -1.1875,-0.498863 -0.378125,-0.152319 -0.828125,-0.334914 -1,-0.405766 -0.171875,-0.07085 -0.453125,-0.1844 -0.625,-0.252328 -0.171875,-0.06793 -0.467188,-0.204205 -0.65625,-0.302842 -0.189063,-0.09864 -0.34375,-0.141146 -0.34375,-0.09447 0,0.04668 -0.07031,0.02688 -0.15625,-0.044 -0.08594,-0.07088 -0.55,-0.279117 -1.03125,-0.46275 -0.48125,-0.183632 -1.029688,-0.416957 -1.21875,-0.5185 -0.189063,-0.101541 -0.34375,-0.146428 -0.34375,-0.09975 0,0.04668 -0.07031,0.02734 -0.15625,-0.04298 -0.142161,-0.116326 -1.608048,-0.754352 -1.90625,-0.829695 -0.128859,-0.03256 -0.407451,-0.152452 -1.523509,-0.655661 -0.356681,-0.16082 -0.703685,-0.2924 -0.771121,-0.2924 -0.06743,0 -0.281856,-0.07949 -0.47649,-0.176651 -0.335621,-0.167538 -0.67668,-0.319062 -1.758305,-0.781173 -3.050312,-1.303207 -4.683942,-2.061436 -7.86163,-3.648875 -1.24633,-0.622613 -2.301017,-1.097062 -2.34375,-1.05433 -0.04273,0.04273 -0.0777,0.02333 -0.0777,-0.04311 0,-0.06644 -0.464062,-0.343005 -1.03125,-0.614583 -0.567187,-0.271578 -1.050116,-0.536315 -1.073176,-0.588307 -0.02306,-0.05199 -0.09337,-0.06273 -0.15625,-0.02387 -0.06288,0.03886 -0.114324,0.01666 -0.114324,-0.04934 0,-0.066 -0.252914,-0.224004 -0.562031,-0.351126 -0.309118,-0.127124 -0.562243,-0.266497 -0.5625,-0.309718 -2.63e-4,-0.04322 -0.183281,-0.152529 -0.406719,-0.242904 -0.223437,-0.09038 -0.434375,-0.199072 -0.46875,-0.24155 -0.115569,-0.14281 -1.593819,-0.999461 -1.724684,-0.999461 -0.07122,0 -0.148232,-0.04513 -0.171149,-0.100276 -0.02292,-0.05515 -0.519792,-0.413 -1.104167,-0.795215 -1.020494,-0.667464 -2.420168,-1.666 -3.1676818,-2.259843 C 9.2483273,23.098192 7.4558968,21.324079 6.8938986,20.654958 6.3459296,20.002541 5.8527126,19.06904 5.5043551,18.024999 5.0846146,16.767021 5.3981893,15.100498 6.1794885,14.43694 c 0.7263786,-0.616914 2.4563673,-0.719699 4.0353255,-0.239754 0.224709,0.0683 0.421584,0.118551 0.4375,0.11166 0.01591,-0.0069 0.422687,0.121028 0.903937,0.284263 0.48125,0.163234 0.903125,0.301056 0.9375,0.30627 0.03438,0.0052 0.175,0.07225 0.3125,0.148973 0.1375,0.07672 0.291834,0.145783 0.342964,0.153468 0.232426,0.03494 3.961131,1.841473 4.491902,2.1763 0.159574,0.100663 0.637127,0.371767 1.061227,0.602452 0.424101,0.230685 1.258078,0.71474 1.853282,1.075677 0.595204,0.360938 1.13415,0.65625 1.197656,0.65625 0.06351,0 0.115469,0.05625 0.115469,0.125 0,0.06875 0.06588,0.125 0.146408,0.125 0.08052,0 0.235337,0.08048 0.344028,0.178845 0.108692,0.09837 0.338122,0.253923 0.509843,0.345686 0.171721,0.09176 0.915034,0.573783 1.651804,1.071155 0.736771,0.497373 1.397708,0.904314 1.46875,0.904314 0.07104,0 0.129167,0.04397 0.129167,0.0977 0,0.05373 0.365491,0.320922 0.812204,0.59375 0.446711,0.272828 0.812336,0.538239 0.8125,0.589801 1.25e-4,0.05156 0.08467,0.09375 0.187796,0.09375 0.103125,0 0.1875,0.04739 0.1875,0.105316 0,0.05792 0.196875,0.211341 0.4375,0.340926 0.240625,0.129585 0.4375,0.279068 0.4375,0.332184 0,0.05312 0.08438,0.09657 0.1875,0.09657 0.103125,0 0.1875,0.05246 0.1875,0.116577 0,0.06412 0.102584,0.149135 0.227964,0.188929 0.125381,0.03979 0.337762,0.174645 0.47196,0.299669 0.134196,0.125023 0.4113,0.334876 0.615785,0.466339 0.204485,0.131463 0.428041,0.280871 0.496791,0.332019 2.443869,1.818151 3.973851,2.948276 4.192052,3.096467 0.151844,0.103125 0.3395,0.24375 0.417014,0.3125 0.07751,0.06875 0.478434,0.375449 0.890934,0.681553 0.4125,0.306105 0.81342,0.61548 0.890934,0.6875 0.07751,0.07202 0.265296,0.215322 0.417296,0.318447 0.151999,0.103125 0.40399,0.3 0.559981,0.4375 0.15599,0.1375 0.41197,0.334375 0.568843,0.4375 0.316803,0.20826 0.973287,0.725674 1.228125,0.967958 0.09085,0.08637 0.203347,0.158347 0.25,0.159942 0.04665,0.0016 0.287178,0.184408 0.534503,0.40625 0.247327,0.221843 0.634513,0.543975 0.860414,0.71585 0.225901,0.171875 0.511164,0.396875 0.633918,0.5 0.122753,0.103125 0.37884,0.3 0.569081,0.4375 0.41673,0.301197 1.083265,0.844661 1.861905,1.518115 0.20625,0.178387 0.571875,0.472289 0.8125,0.653114 0.240625,0.180823 0.49998,0.385021 0.576344,0.453771 0.07636,0.06875 0.347626,0.29375 0.602806,0.5 0.25518,0.20625 0.565987,0.459375 0.690684,0.5625 0.124697,0.103125 0.437565,0.35625 0.695263,0.5625 1.813944,1.451799 6.015663,4.990607 6.097364,5.135376 0.144085,0.255308 0.104412,0.241499 -2.162461,-0.752654 z"
       id="path3396"
       inkscape:connector-curvature="0" />
  </g>
</svg>
